<?xml version="1.0" standalone="no"?>
<!DOCTYPE svg PUBLIC "-//W3C//DTD SVG 20010904//EN"
 "http://www.w3.org/TR/2001/REC-SVG-20010904/DTD/svg10.dtd">
<svg version="1.0" xmlns="http://www.w3.org/2000/svg"
 width="561.000000pt" height="445.000000pt" viewBox="0 0 561.000000 445.000000"
 preserveAspectRatio="xMidYMid meet">

<g transform="translate(0.000000,445.000000) scale(0.100000,-0.100000)"
fill="#000000" stroke="none">
<path d="M2716 3349 c-38 -4 -74 -13 -80 -19 -14 -14 -12 -221 3 -277 14 -53
38 -78 57 -63 7 7 23 32 34 56 42 87 166 171 287 194 35 7 60 16 58 20 -9 15
-93 58 -142 73 -61 20 -130 24 -217 16z"/>
<path d="M2447 3227 c-91 -90 -138 -187 -152 -315 l-7 -62 46 -20 c63 -29 191
-60 241 -60 72 0 76 20 18 84 -76 83 -98 151 -97 299 0 64 -1 117 -3 117 -2 0
-23 -19 -46 -43z"/>
<path d="M3069 3127 c-102 -35 -182 -88 -177 -115 2 -11 22 -20 58 -27 108
-22 190 -79 261 -182 53 -77 54 -78 60 -48 12 56 9 180 -6 237 -16 65 -68 162
-87 166 -7 1 -56 -13 -109 -31z"/>
<path d="M2956 2812 c-2 -4 0 -29 6 -55 7 -36 6 -66 -6 -123 -16 -81 -43 -134
-102 -205 -31 -37 -34 -45 -19 -47 25 -6 101 17 174 51 61 30 181 133 181 157
0 19 -21 52 -73 117 -69 86 -143 134 -161 105z"/>
<path d="M2345 2653 c42 -100 147 -200 260 -248 l68 -29 32 39 c47 56 115 179
122 220 7 45 -12 53 -58 26 -19 -11 -65 -27 -102 -36 -77 -18 -149 -10 -241
27 -108 43 -98 43 -81 1z"/>
<path d="M2536 1566 c-22 -8 -50 -25 -62 -38 -50 -49 -50 -203 -1 -256 67 -73
227 -70 285 7 23 29 27 46 30 110 4 89 -15 135 -66 164 -43 25 -136 31 -186
13z m125 -66 c55 -30 65 -144 14 -187 -63 -55 -155 -8 -155 81 0 78 29 114 93
115 16 1 37 -4 48 -9z"/>
<path d="M2102 1398 l3 -173 138 -3 137 -3 0 41 0 40 -100 0 -100 0 0 135 0
135 -40 0 -40 0 2 -172z"/>
<path d="M2842 1398 l3 -173 40 0 40 0 3 58 c3 56 4 57 32 57 24 0 34 -9 66
-60 35 -57 39 -60 75 -60 22 0 39 4 39 10 0 5 -14 33 -31 61 -30 52 -30 53
-11 68 30 24 42 55 42 106 0 38 -5 52 -29 76 -29 29 -30 29 -150 29 l-121 0 2
-172z m206 80 c22 -47 2 -68 -63 -68 l-55 0 0 51 0 50 52 -3 c46 -3 54 -6 66
-30z"/>
<path d="M3200 1395 l0 -175 141 0 140 0 -3 38 -3 37 -97 3 -98 3 0 29 0 30
76 0 75 0 -3 38 -3 37 -73 3 -73 3 3 32 3 32 98 3 97 3 0 29 0 30 -140 0 -140
0 0 -175z"/>
<path d="M882 1058 c3 -7 15 -44 28 -83 24 -75 39 -98 55 -87 14 9 69 171 62
179 -7 6 -15 -11 -45 -90 -10 -27 -22 -48 -27 -48 -5 0 -20 31 -34 70 -13 39
-29 71 -34 71 -5 0 -7 -6 -5 -12z"/>
<path d="M1160 980 c0 -53 4 -90 10 -90 6 0 10 37 10 90 0 53 -4 90 -10 90 -6
0 -10 -37 -10 -90z"/>
<path d="M1326 1054 c-19 -19 -21 -48 -3 -61 6 -6 29 -16 49 -22 49 -16 63
-34 43 -55 -21 -20 -59 -21 -75 -1 -18 22 -33 19 -20 -4 25 -48 120 -29 120
24 0 27 -8 33 -65 55 -28 11 -40 21 -40 35 0 16 8 21 38 23 21 2 37 -1 37 -7
0 -6 7 -11 17 -11 14 0 14 2 -2 20 -22 24 -77 27 -99 4z"/>
<path d="M1570 1000 c0 -62 3 -74 25 -95 13 -14 34 -25 45 -25 11 0 32 11 45
25 22 21 25 33 25 95 0 40 -4 70 -10 70 -6 0 -10 -29 -10 -68 0 -54 -4 -72
-18 -85 -47 -43 -82 -6 -82 86 0 38 -4 67 -10 67 -6 0 -10 -30 -10 -70z"/>
<path d="M1903 1053 c-3 -10 -12 -34 -20 -53 -33 -80 -42 -110 -32 -110 6 0
13 9 16 20 4 17 14 20 58 20 44 0 54 -3 58 -20 3 -11 10 -20 16 -20 6 0 2 21
-10 53 -12 28 -27 68 -34 87 -13 39 -42 51 -52 23z m57 -90 c0 -8 -13 -13 -35
-13 -40 0 -41 6 -19 58 l15 37 19 -35 c11 -19 19 -41 20 -47z"/>
<path d="M2140 982 l0 -92 63 2 62 1 -55 6 -55 6 -1 77 c0 43 -3 81 -7 84 -4
4 -7 -34 -7 -84z"/>
<path d="M2397 1063 c-11 -11 -8 -173 3 -173 6 0 10 37 10 90 0 90 -1 96 -13
83z"/>
<path d="M2540 1060 c0 -5 23 -10 50 -10 28 0 50 -3 50 -8 0 -4 -22 -35 -50
-69 -27 -34 -50 -67 -50 -72 0 -7 26 -10 68 -9 63 2 64 2 15 5 -29 2 -53 7
-53 11 0 4 23 36 50 71 28 35 50 70 50 77 0 11 -16 14 -65 14 -37 0 -65 -4
-65 -10z"/>
<path d="M2800 980 l0 -90 68 2 67 1 -55 6 c-53 6 -55 7 -55 36 0 25 4 30 28
33 37 4 35 22 -3 22 -27 0 -30 3 -30 30 0 30 1 30 55 30 30 0 55 5 55 10 0 6
-28 10 -65 10 l-65 0 0 -90z"/>
<path d="M3210 1060 c0 -5 14 -10 30 -10 l30 0 0 -80 c0 -47 4 -80 10 -80 6 0
10 33 10 80 0 79 0 80 25 80 14 0 25 5 25 10 0 6 -28 10 -65 10 -37 0 -65 -4
-65 -10z"/>
<path d="M3470 980 c0 -53 4 -90 10 -90 6 0 10 16 10 35 0 32 2 35 30 35 32 0
70 -30 70 -55 0 -8 5 -15 10 -15 13 0 13 4 -5 47 -11 25 -12 40 -5 47 15 15
12 52 -6 70 -10 10 -33 16 -65 16 l-49 0 0 -90z m108 41 c4 -29 -12 -41 -55
-41 -31 0 -33 2 -33 36 l0 35 43 -3 c36 -3 43 -7 45 -27z"/>
<path d="M3806 1062 c-6 -10 -66 -161 -66 -167 0 -14 20 -2 25 15 5 17 15 20
57 20 41 0 51 -3 55 -20 3 -11 12 -20 19 -20 12 0 12 6 -2 38 -9 20 -25 61
-36 90 -19 47 -39 65 -52 44z m38 -62 c9 -22 16 -43 16 -45 0 -3 -16 -5 -35
-5 -19 0 -35 3 -35 6 0 18 24 84 30 84 5 0 15 -18 24 -40z"/>
<path d="M4040 1062 c0 -4 13 -44 29 -88 38 -105 55 -106 92 -4 30 81 34 100
20 100 -5 0 -19 -32 -31 -70 -12 -39 -26 -73 -31 -75 -4 -3 -20 28 -36 70 -15
41 -31 75 -35 75 -5 0 -8 -4 -8 -8z"/>
<path d="M4320 980 l0 -90 68 2 67 1 -55 6 c-53 6 -55 7 -55 36 0 27 3 30 38
33 46 4 39 22 -9 22 -31 0 -34 2 -34 30 0 30 1 30 55 30 30 0 55 5 55 10 0 6
-28 10 -65 10 l-65 0 0 -90z"/>
<path d="M4580 982 l0 -90 56 -4 c31 -1 58 0 61 5 2 4 -18 7 -45 7 -58 0 -60
4 -56 97 2 35 -1 65 -7 68 -5 4 -9 -30 -9 -83z"/>
</g>
</svg>
